<svg xmlns="http://www.w3.org/2000/svg" viewBox="0 0 400 280" width="400" height="280">
  <rect width="400" height="280" fill="#EFE6D4"></rect>
  <circle cx="320" cy="50" r="3" fill="#C9A227"></circle>
  <circle cx="350" cy="90" r="2" fill="#C25A3C"></circle>
  <path d="M295 67 L297.4 72.6 L303 75 L297.4 77.4 L295 83 L292.6 77.4 L287 75 L292.6 72.6 Z" fill="#C9A227"></path>
  <circle cx="355" cy="140" r="2.5" fill="#2C3E7A"></circle>
  <circle cx="250" cy="45" r="2" fill="#1B1B14"></circle>
  <circle cx="280" cy="110" r="2" fill="#1F6E48"></circle>
  <path d="M170 130 L300 70" fill="none" stroke="#1B1B14" stroke-width="1.2" stroke-linecap="round" stroke-dasharray="1 5"></path>
  <path d="M170 130 L300 100" fill="none" stroke="#1B1B14" stroke-width="1.2" stroke-linecap="round" stroke-dasharray="1 5"></path>
  <g transform="translate(200 160) rotate(-32)">
    <rect x="-60" y="-14" width="100" height="28" rx="4" fill="#C25A3C"></rect>
    <rect x="40" y="-20" width="22" height="40" rx="4" fill="#A24729"></rect>
    <circle cx="51" cy="0" r="11" fill="#E8CF7F" stroke="#1B1B14" stroke-width="1.5"></circle>
    <rect x="-72" y="-8" width="14" height="16" rx="2" fill="#2C3E7A"></rect>
    <rect x="0" y="-14" width="6" height="28" fill="#1A2447"></rect>
  </g>
  <line x1="200" y1="170" x2="170" y2="240" stroke="#1B1B14" stroke-width="2.5" stroke-linecap="round"></line>
  <line x1="200" y1="170" x2="230" y2="240" stroke="#1B1B14" stroke-width="2.5" stroke-linecap="round"></line>
  <line x1="200" y1="170" x2="205" y2="240" stroke="#1B1B14" stroke-width="2.5" stroke-linecap="round"></line>
  <circle cx="200" cy="170" r="5" fill="#1B1B14"></circle>
  <line x1="40" y1="244" x2="360" y2="244" stroke="#1B1B14" stroke-width="1.5" stroke-linecap="round" stroke-dasharray="2 5"></line>
</svg>