<svg xmlns="http://www.w3.org/2000/svg" viewBox="0 0 400 280" width="400" height="280">
  <rect width="400" height="280" fill="#FAFAF9"></rect>
  <path d="M40 34 L41.8 38.2 L46 40 L41.8 41.8 L40 46 L38.2 41.8 L34 40 L38.2 38.2 Z" fill="#0E7EB3"></path>
  <path d="M360 234 L361.8 238.2 L366 240 L361.8 241.8 L360 246 L358.2 241.8 L354 240 L358.2 238.2 Z" fill="#C78A04"></path>
  <path d="M200 140 Q 135 90 70 70" fill="none" stroke="#C78A04" stroke-width="2.5" stroke-linecap="round"></path>
  <path d="M200 140 Q 265 85 330 60" fill="none" stroke="#0E7EB3" stroke-width="2.5" stroke-linecap="round"></path>
  <path d="M200 140 Q 145 162.5 90 215" fill="none" stroke="#0F3F75" stroke-width="2.5" stroke-linecap="round"></path>
  <path d="M200 140 Q 260 165 320 220" fill="none" stroke="#1F5F6B" stroke-width="2.5" stroke-linecap="round"></path>
  <line x1="70" y1="70" x2="40" y2="130" stroke="#14171F" stroke-width="1.2" stroke-dasharray="2 4" opacity="0.6"></line>
  <line x1="70" y1="70" x2="120" y2="30" stroke="#14171F" stroke-width="1.2" stroke-dasharray="2 4" opacity="0.6"></line>
  <line x1="330" y1="60" x2="370" y2="110" stroke="#14171F" stroke-width="1.2" stroke-dasharray="2 4" opacity="0.6"></line>
  <line x1="330" y1="60" x2="290" y2="25" stroke="#14171F" stroke-width="1.2" stroke-dasharray="2 4" opacity="0.6"></line>
  <line x1="90" y1="215" x2="40" y2="250" stroke="#14171F" stroke-width="1.2" stroke-dasharray="2 4" opacity="0.6"></line>
  <line x1="90" y1="215" x2="145" y2="255" stroke="#14171F" stroke-width="1.2" stroke-dasharray="2 4" opacity="0.6"></line>
  <line x1="320" y1="220" x2="370" y2="175" stroke="#14171F" stroke-width="1.2" stroke-dasharray="2 4" opacity="0.6"></line>
  <line x1="320" y1="220" x2="270" y2="260" stroke="#14171F" stroke-width="1.2" stroke-dasharray="2 4" opacity="0.6"></line>
  <circle cx="40" cy="130" r="6" fill="#E8C56C" stroke="#14171F" stroke-width="1.2"></circle>
  <circle cx="120" cy="30" r="5" fill="#E8C56C" stroke="#14171F" stroke-width="1.2"></circle>
  <circle cx="370" cy="110" r="6" fill="#BBD9E9" stroke="#14171F" stroke-width="1.2"></circle>
  <circle cx="290" cy="25" r="5" fill="#BBD9E9" stroke="#14171F" stroke-width="1.2"></circle>
  <circle cx="40" cy="250" r="5" fill="#7B8FB5" stroke="#14171F" stroke-width="1.2"></circle>
  <circle cx="145" cy="255" r="6" fill="#7B8FB5" stroke="#14171F" stroke-width="1.2"></circle>
  <circle cx="370" cy="175" r="5" fill="#9CBCC2" stroke="#14171F" stroke-width="1.2"></circle>
  <circle cx="270" cy="260" r="6" fill="#9CBCC2" stroke="#14171F" stroke-width="1.2"></circle>
  <circle cx="70" cy="70" r="14" fill="#C78A04" opacity="0.25"></circle>
  <circle cx="70" cy="70" r="9" fill="#C78A04" stroke="#14171F" stroke-width="1.5"></circle>
  <circle cx="330" cy="60" r="14" fill="#0E7EB3" opacity="0.25"></circle>
  <circle cx="330" cy="60" r="9" fill="#0E7EB3" stroke="#14171F" stroke-width="1.5"></circle>
  <circle cx="90" cy="215" r="14" fill="#0F3F75" opacity="0.25"></circle>
  <circle cx="90" cy="215" r="9" fill="#0F3F75" stroke="#14171F" stroke-width="1.5"></circle>
  <circle cx="320" cy="220" r="14" fill="#1F5F6B" opacity="0.25"></circle>
  <circle cx="320" cy="220" r="9" fill="#1F5F6B" stroke="#14171F" stroke-width="1.5"></circle>
  <circle cx="200" cy="140" r="28" fill="#FFFFFF" stroke="#14171F" stroke-width="2.5"></circle>
  <circle cx="200" cy="140" r="20" fill="#C78A04"></circle>
  <path d="M200 129 L203.3 136.7 L211 140 L203.3 143.3 L200 151 L196.7 143.3 L189 140 L196.7 136.7 Z" fill="#FFFFFF"></path>
</svg>